<svg xmlns="http://www.w3.org/2000/svg" width="1600" height="1200" viewBox="0 0 1600 1200" role="img" aria-label="Placeholder illustration: a cedar pergola over a paved seating area"><title>Placeholder illustration: a cedar pergola over a paved seating area</title><clipPath id="f"><rect width="1600" height="1200"/></clipPath><g clip-path="url(#f)"><rect width="1600" height="1200" fill="#F3EFE8"/><ellipse cx="800" cy="744" rx="1760.0000000000002" ry="264" fill="#DDE4DC"/><rect x="1390.9" y="624" width="34.199999999999996" height="285" fill="#0A1A16" opacity="0.75"/><circle cx="1408" cy="538.5" r="136.79999999999998" fill="#4A7A62"/><circle cx="1290.2" cy="614.5" r="98.8" fill="#4A7A62"/><circle cx="1525.8" cy="614.5" r="98.8" fill="#4A7A62"/><rect x="96" y="192" width="1408" height="26" rx="8" fill="#17403A"/><rect x="119" y="240" width="18" height="72" rx="4" fill="#12332E" opacity="0.9"/><rect x="253.40000000000003" y="240" width="18" height="72" rx="4" fill="#12332E" opacity="0.9"/><rect x="387.8" y="240" width="18" height="72" rx="4" fill="#12332E" opacity="0.9"/><rect x="522.2" y="240" width="18" height="72" rx="4" fill="#12332E" opacity="0.9"/><rect x="656.6" y="240" width="18" height="72" rx="4" fill="#12332E" opacity="0.9"/><rect x="791" y="240" width="18" height="72" rx="4" fill="#12332E" opacity="0.9"/><rect x="925.4" y="240" width="18" height="72" rx="4" fill="#12332E" opacity="0.9"/><rect x="1059.8" y="240" width="18" height="72" rx="4" fill="#12332E" opacity="0.9"/><rect x="1194.2" y="240" width="18" height="72" rx="4" fill="#12332E" opacity="0.9"/><rect x="1328.6" y="240" width="18" height="72" rx="4" fill="#12332E" opacity="0.9"/><rect x="1463" y="240" width="18" height="72" rx="4" fill="#12332E" opacity="0.9"/><rect x="128" y="240" width="26" height="744" rx="8" fill="#17403A"/><rect x="1424" y="240" width="26" height="744" rx="8" fill="#17403A"/><polygon points="520,960 613.3333333333334,960 497.77777777777777,1014.462496851876 346.6666666666667,1014.462496851876" fill="#D9CFBF" stroke="#EBE2D8" stroke-width="3" opacity="0.55"/><polygon points="613.3333333333334,960 706.6666666666666,960 648.8888888888889,1014.462496851876 497.77777777777777,1014.462496851876" fill="#D9CFBF" stroke="#EBE2D8" stroke-width="3" opacity="0.55"/><polygon points="706.6666666666666,960 800,960 800,1014.462496851876 648.8888888888889,1014.462496851876" fill="#D9CFBF" stroke="#EBE2D8" stroke-width="3" opacity="0.55"/><polygon points="800,960 893.3333333333334,960 951.1111111111111,1014.462496851876 800,1014.462496851876" fill="#D9CFBF" stroke="#EBE2D8" stroke-width="3" opacity="0.55"/><polygon points="893.3333333333334,960 986.6666666666666,960 1102.2222222222222,1014.462496851876 951.1111111111111,1014.462496851876" fill="#D9CFBF" stroke="#EBE2D8" stroke-width="3" opacity="0.55"/><polygon points="986.6666666666666,960 1080,960 1253.3333333333333,1014.462496851876 1102.2222222222222,1014.462496851876" fill="#D9CFBF" stroke="#EBE2D8" stroke-width="3" opacity="0.55"/><polygon points="346.6666666666667,1014.462496851876 497.77777777777777,1014.462496851876 382.2222222222222,1098.831508305801 173.33333333333337,1098.831508305801" fill="#D9CFBF" stroke="#EBE2D8" stroke-width="3" opacity="0.6833333333333333"/><polygon points="497.77777777777777,1014.462496851876 648.8888888888889,1014.462496851876 591.1111111111111,1098.831508305801 382.2222222222222,1098.831508305801" fill="#D9CFBF" stroke="#EBE2D8" stroke-width="3" opacity="0.6833333333333333"/><polygon points="648.8888888888889,1014.462496851876 800,1014.462496851876 800,1098.831508305801 591.1111111111111,1098.831508305801" fill="#D9CFBF" stroke="#EBE2D8" stroke-width="3" opacity="0.6833333333333333"/><polygon points="800,1014.462496851876 951.1111111111111,1014.462496851876 1008.8888888888889,1098.831508305801 800,1098.831508305801" fill="#D9CFBF" stroke="#EBE2D8" stroke-width="3" opacity="0.6833333333333333"/><polygon points="951.1111111111111,1014.462496851876 1102.2222222222222,1014.462496851876 1217.7777777777778,1098.831508305801 1008.8888888888889,1098.831508305801" fill="#D9CFBF" stroke="#EBE2D8" stroke-width="3" opacity="0.6833333333333333"/><polygon points="1102.2222222222222,1014.462496851876 1253.3333333333333,1014.462496851876 1426.6666666666665,1098.831508305801 1217.7777777777778,1098.831508305801" fill="#D9CFBF" stroke="#EBE2D8" stroke-width="3" opacity="0.6833333333333333"/><polygon points="173.33333333333337,1098.831508305801 382.2222222222222,1098.831508305801 266.66666666666663,1200 0,1200" fill="#D9CFBF" stroke="#EBE2D8" stroke-width="3" opacity="0.8166666666666667"/><polygon points="382.2222222222222,1098.831508305801 591.1111111111111,1098.831508305801 533.3333333333333,1200 266.66666666666663,1200" fill="#D9CFBF" stroke="#EBE2D8" stroke-width="3" opacity="0.8166666666666667"/><polygon points="591.1111111111111,1098.831508305801 800,1098.831508305801 800,1200 533.3333333333333,1200" fill="#D9CFBF" stroke="#EBE2D8" stroke-width="3" opacity="0.8166666666666667"/><polygon points="800,1098.831508305801 1008.8888888888889,1098.831508305801 1066.6666666666667,1200 800,1200" fill="#D9CFBF" stroke="#EBE2D8" stroke-width="3" opacity="0.8166666666666667"/><polygon points="1008.8888888888889,1098.831508305801 1217.7777777777778,1098.831508305801 1333.3333333333335,1200 1066.6666666666667,1200" fill="#D9CFBF" stroke="#EBE2D8" stroke-width="3" opacity="0.8166666666666667"/><polygon points="1217.7777777777778,1098.831508305801 1426.6666666666665,1098.831508305801 1600,1200 1333.3333333333335,1200" fill="#D9CFBF" stroke="#EBE2D8" stroke-width="3" opacity="0.8166666666666667"/></g></svg>